<svg xmlns="http://www.w3.org/2000/svg" viewBox="0 0 1024 1024" width="1024" height="1024">
  <rect width="1024" height="1024" fill="#fbfbf9"/>
  <svg x="230" y="230" width="564" height="564" viewBox="210 230 580 580">
    <defs>
      <linearGradient id="og-chentik-trail" gradientUnits="userSpaceOnUse" x1="260" y1="280" x2="740" y2="760">
        <stop offset="0%" stop-color="#B45309" stop-opacity="0.7"/>
        <stop offset="35%" stop-color="#8B5A2B" stop-opacity="0.78"/>
        <stop offset="65%" stop-color="#4F5BB8" stop-opacity="0.85"/>
        <stop offset="100%" stop-color="#2563EB" stop-opacity="0.92"/>
      </linearGradient>
    </defs>
    <circle cx="260" cy="280" r="42" fill="none" stroke="#B45309" stroke-opacity="0.85" stroke-width="6.5"/>
    <path d="M 255.41,328.87 L 256.19,335.02 L 257.01,341.13 L 257.88,347.19 L 258.79,353.21 L 259.74,359.18 L 260.74,365.11 L 261.78,370.99 L 262.86,376.83 L 263.98,382.62 L 265.15,388.36 L 266.36,394.06 L 267.61,399.72 L 268.90,405.33 L 270.24,410.89 L 271.62,416.41 L 273.04,421.88 L 274.51,427.31 L 276.01,432.69 L 277.56,438.03 L 279.15,443.32 L 280.79,448.57 L 282.46,453.77 L 284.18,458.93 L 285.94,464.04 L 287.74,469.10 L 289.59,474.12 L 291.48,479.10 L 293.40,484.03 L 295.37,488.92 L 297.39,493.76 L 299.44,498.55 L 301.54,503.31 L 303.68,508.01 L 305.86,512.67 L 308.08,517.29 L 310.35,521.86 L 312.65,526.39 L 315.00,530.88 L 317.39,535.31 L 319.82,539.71 L 322.30,544.06 L 324.81,548.37 L 327.37,552.63 L 329.97,556.85 L 332.61,561.02 L 335.29,565.15 L 338.01,569.24 L 340.78,573.28 L 343.58,577.28 L 346.43,581.24 L 349.32,585.15 L 352.25,589.02 L 355.23,592.84 L 358.24,596.63 L 361.30,600.37 L 364.40,604.06 L 367.54,607.72 L 370.72,611.33 L 373.94,614.90 L 377.21,618.43 L 380.51,621.91 L 383.86,625.36 L 387.25,628.76 L 390.68,632.12 L 394.16,635.44 L 397.67,638.72 L 401.23,641.95 L 404.83,645.15 L 408.47,648.30 L 412.15,651.42 L 415.88,654.49 L 419.64,657.53 L 423.45,660.53 L 427.30,663.49 L 431.19,666.41 L 435.12,669.29 L 439.09,672.13 L 443.11,674.93 L 447.17,677.70 L 451.28,680.42 L 455.43,683.10 L 459.62,685.74 L 463.86,688.34 L 468.14,690.90 L 472.46,693.43 L 476.83,695.90 L 481.25,698.34 L 485.71,700.74 L 490.22,703.10 L 494.77,705.41 L 499.37,707.68 L 504.01,709.91 L 508.70,712.10 L 513.44,714.24 L 518.22,716.34 L 523.05,718.40 L 527.92,720.41 L 532.84,722.38 L 537.81,724.31 L 542.82,726.19 L 547.88,728.02 L 552.98,729.81 L 558.14,731.56 L 563.33,733.26 L 568.58,734.91 L 573.87,736.52 L 579.21,738.09 L 584.59,739.60 L 590.02,741.07 L 595.50,742.49 L 601.02,743.86 L 606.59,745.19 L 612.20,746.47 L 617.86,747.70 L 623.57,748.88 L 629.32,750.01 L 635.12,751.09 L 640.97,752.09 L 646.88,752.94 L 652.83,753.74 L 658.83,754.49 L 664.87,755.20 L 670.94,755.87 L 677.07,756.49 L 683.23,757.07 L 689.44,757.61 L 695.68,758.10 L 701.97,758.55 L 702.34,754.57 L 696.11,753.83 L 689.92,753.05 L 683.78,752.23 L 677.69,751.36 L 671.65,750.45 L 665.65,749.50 L 659.71,748.50 L 653.80,747.47 L 647.95,746.39 L 642.14,745.26 L 636.37,744.21 L 630.62,743.15 L 624.93,742.06 L 619.27,740.92 L 613.67,739.75 L 608.10,738.54 L 602.58,737.30 L 597.10,736.01 L 591.66,734.68 L 586.27,733.32 L 580.92,731.91 L 575.61,730.46 L 570.35,728.98 L 565.13,727.45 L 559.96,725.88 L 554.82,724.27 L 549.73,722.62 L 544.68,720.93 L 539.68,719.20 L 534.72,717.42 L 529.80,715.60 L 524.93,713.74 L 520.09,711.83 L 515.31,709.89 L 510.56,707.89 L 505.86,705.86 L 501.20,703.78 L 496.59,701.65 L 492.02,699.48 L 487.49,697.27 L 483.01,695.01 L 478.57,692.70 L 474.18,690.35 L 469.83,687.96 L 465.53,685.51 L 461.27,683.03 L 457.05,680.49 L 452.89,677.91 L 448.76,675.28 L 444.69,672.61 L 440.66,669.88 L 436.67,667.11 L 432.74,664.30 L 428.84,661.43 L 425.00,658.52 L 421.21,655.56 L 417.46,652.55 L 413.76,649.50 L 410.11,646.40 L 406.51,643.25 L 402.95,640.05 L 399.45,636.81 L 395.99,633.52 L 392.58,630.19 L 389.21,626.81 L 385.90,623.38 L 382.63,619.91 L 379.41,616.40 L 376.24,612.84 L 373.11,609.24 L 370.04,605.59 L 367.01,601.90 L 364.02,598.17 L 361.09,594.39 L 358.21,590.56 L 355.37,586.70 L 352.58,582.79 L 349.83,578.83 L 347.14,574.83 L 344.49,570.79 L 341.89,566.71 L 339.34,562.58 L 336.84,558.41 L 334.38,554.20 L 331.98,549.94 L 329.62,545.64 L 327.31,541.30 L 325.04,536.92 L 322.82,532.49 L 320.66,528.02 L 318.54,523.51 L 316.46,518.96 L 314.44,514.36 L 312.46,509.72 L 310.53,505.04 L 308.64,500.32 L 306.81,495.56 L 305.02,490.75 L 303.28,485.90 L 301.59,481.02 L 299.94,476.08 L 298.34,471.11 L 296.79,466.10 L 295.29,461.04 L 293.83,455.94 L 292.43,450.80 L 291.06,445.62 L 289.75,440.40 L 288.48,435.13 L 287.26,429.83 L 286.09,424.48 L 284.96,419.09 L 283.89,413.66 L 282.85,408.19 L 281.87,402.67 L 280.93,397.12 L 280.04,391.52 L 279.20,385.89 L 278.40,380.21 L 277.65,374.49 L 276.95,368.72 L 276.29,362.92 L 275.68,357.08 L 275.12,351.19 L 274.60,345.27 L 274.13,339.30 L 273.71,333.29 L 273.33,327.24 Z" fill="url(#og-chentik-trail)"/>
    <circle cx="740" cy="760" r="36" fill="#2563EB"/>
  </svg>
</svg>
